<?xml version="1.0" standalone="no"?>
<!DOCTYPE svg PUBLIC "-//W3C//DTD SVG 20010904//EN"
 "http://www.w3.org/TR/2001/REC-SVG-20010904/DTD/svg10.dtd">
<svg version="1.0" xmlns="http://www.w3.org/2000/svg"
 width="700.000000pt" height="700.000000pt" viewBox="0 0 700.000000 700.000000"
 preserveAspectRatio="xMidYMid meet">
<metadata>
Created by potrace 1.11, written by Peter Selinger 2001-2013
</metadata>
<g transform="translate(0.000000,700.000000) scale(0.100000,-0.100000)"
fill="#000000" stroke="none">
<path d="M2409 6981 c-232 -62 -393 -280 -382 -520 9 -214 135 -388 339 -468
l69 -27 345 -2 c368 -3 399 -5 447 -29 37 -19 89 -70 109 -106 22 -43 32 -141
25 -239 -1 -13 -173 -15 -1493 -13 -1607 3 -1546 5 -1648 -47 -91 -47 -173
-147 -203 -250 -15 -50 -17 -246 -16 -2155 1 -2295 -2 -2170 60 -2349 72 -209
142 -309 398 -567 167 -169 201 -199 233 -204 53 -10 86 1 124 39 38 38 49 72
39 123 -5 31 -40 70 -204 237 -108 111 -214 227 -235 259 -67 103 -117 233
-134 352 -4 22 -6 444 -7 937 0 847 1 899 18 931 36 67 118 90 183 53 74 -42
73 -34 74 -543 0 -501 0 -495 63 -533 41 -25 103 -25 144 0 66 40 63 0 66 853
2 719 3 775 20 800 27 42 65 62 116 61 54 -1 95 -24 119 -68 15 -28 16 -103
17 -796 1 -706 3 -768 19 -798 49 -93 178 -96 237 -6 18 28 19 69 19 1033 0
936 1 1006 18 1034 39 68 108 90 177 57 85 -41 79 38 80 -1096 0 -944 1 -1002
18 -1028 45 -68 140 -87 197 -40 60 51 57 13 57 824 0 410 3 761 7 780 9 45
35 77 80 95 42 18 82 14 124 -11 68 -39 64 28 64 -1158 0 -647 4 -1080 10
-1095 12 -33 66 -81 92 -83 23 -1 53 -1 76 1 24 2 69 46 84 82 7 19 48 178 91
353 72 295 80 322 110 354 28 32 39 36 91 39 54 4 62 2 96 -27 62 -52 65 -84
27 -270 -11 -52 -22 -108 -25 -125 -3 -16 -23 -122 -45 -235 -82 -420 -91
-455 -147 -565 -49 -99 -109 -169 -335 -397 -233 -235 -245 -253 -225 -325 13
-50 43 -81 90 -95 75 -22 92 -10 349 249 130 131 256 267 281 303 56 79 119
202 148 290 18 52 88 374 114 526 3 16 15 74 26 129 11 55 23 114 26 130 3 17
12 62 21 100 22 98 26 240 7 294 -16 46 -44 103 -69 137 l-16 22 431 1 432 1
-21 -29 c-46 -64 -73 -140 -78 -219 -4 -64 2 -112 35 -277 54 -265 110 -552
117 -595 11 -67 48 -205 67 -255 72 -185 139 -275 393 -533 121 -123 222 -227
225 -231 12 -19 77 -51 103 -51 66 0 128 50 139 114 12 63 -6 88 -228 313
-119 120 -236 245 -261 278 -97 129 -144 257 -188 515 -3 19 -10 53 -15 75 -9
41 -26 130 -34 175 -2 14 -20 104 -40 200 -48 243 -50 258 -29 300 26 50 76
80 134 80 42 0 53 -5 87 -37 l39 -38 83 -340 c46 -187 88 -348 95 -357 46 -67
135 -83 199 -35 20 16 39 41 44 60 5 19 9 490 10 1098 0 690 3 1073 10 1089
26 63 104 102 165 80 44 -15 86 -58 93 -96 3 -18 7 -372 7 -787 l2 -753 24
-36 c54 -79 165 -77 223 4 l23 33 0 1012 0 1012 30 32 c76 80 180 71 227 -22
17 -32 18 -102 18 -1031 0 -986 0 -997 20 -1031 53 -90 188 -87 236 5 16 30
18 94 19 798 1 842 -2 803 62 845 39 26 114 25 150 -1 64 -47 61 -9 61 -850 1
-764 1 -765 22 -800 40 -64 123 -83 188 -44 61 37 62 43 62 527 1 241 4 450 7
466 8 41 53 84 102 97 37 10 48 9 87 -10 85 -42 79 34 78 -1005 l0 -920 -23
-85 c-26 -98 -78 -213 -129 -285 -20 -27 -120 -136 -224 -241 -103 -104 -192
-202 -197 -218 -16 -41 -13 -74 10 -116 35 -62 108 -86 173 -55 33 16 336 318
412 410 48 58 134 190 134 205 0 6 6 21 14 33 24 37 75 198 90 282 12 67 14
417 13 2200 l-2 2120 -32 67 c-59 126 -170 213 -301 238 -30 5 -265 10 -548
10 -538 0 -529 0 -573 -56 -46 -59 -35 -145 26 -191 l35 -27 502 -1 c558 -1
560 -1 598 -63 l23 -37 1 -998 0 -999 -35 8 c-49 11 -158 11 -203 0 l-38 -8 0
147 c0 174 -13 228 -74 318 -46 68 -138 138 -209 159 -46 14 -183 17 -234 6
-31 -7 -31 -6 -29 26 3 35 -8 130 -18 164 -7 19 -2 20 190 21 309 1 294 -21
294 440 0 317 -1 335 -20 366 -40 65 -52 67 -444 67 -386 0 -398 -1 -441 -60
-19 -25 -20 -44 -22 -276 -1 -137 -4 -255 -7 -261 -2 -7 -21 -16 -42 -20 -56
-10 -131 -51 -183 -100 l-46 -43 3 320 c2 307 2 322 -18 363 -37 77 -41 77
-450 77 -398 0 -399 0 -440 -67 -21 -34 -22 -43 -22 -365 0 -369 3 -385 70
-423 31 -18 57 -19 397 -19 242 0 370 4 383 11 31 17 32 14 15 -26 -8 -21 -17
-74 -19 -118 l-3 -80 -28 5 c-15 2 -68 4 -118 5 -80 0 -97 -4 -155 -31 -36
-17 -82 -45 -102 -63 l-36 -31 -424 0 -425 0 -34 -23 c-67 -45 -69 -55 -69
-415 0 -357 2 -371 61 -413 l34 -24 365 0 c201 -1 370 -4 375 -7 8 -5 12 -252
6 -360 -1 -17 -57 -18 -1033 -18 l-1033 0 0 190 c0 119 4 190 10 191 6 1 172
2 370 3 234 2 369 6 386 14 15 6 37 26 50 44 24 33 24 34 27 368 3 370 1 378
-61 424 -28 20 -42 21 -459 24 l-431 3 -34 29 c-36 32 -79 57 -133 78 -49 18
-167 26 -220 13 -24 -5 -46 -9 -47 -7 -2 1 -5 36 -7 77 -5 81 -14 127 -29 147
-12 15 -2 16 24 1 13 -7 146 -11 384 -11 508 0 466 -39 466 429 0 339 -3 369
-41 406 -40 36 -69 39 -425 39 -399 0 -409 -2 -448 -78 -14 -28 -16 -73 -14
-353 1 -177 0 -321 -2 -321 -2 0 -24 18 -48 41 -47 43 -154 99 -190 99 -12 0
-25 5 -28 11 -4 5 -7 117 -7 246 1 282 -7 314 -85 344 -38 15 -717 15 -756 0
-37 -14 -63 -40 -76 -74 -7 -18 -11 -150 -11 -360 0 -448 -14 -427 287 -428
103 0 191 -3 194 -5 4 -2 3 -20 -2 -39 -6 -19 -11 -66 -12 -105 l-2 -70 -30 7
c-16 5 -70 8 -120 8 -79 -1 -98 -4 -156 -31 -85 -40 -162 -118 -203 -203 -30
-64 -31 -70 -34 -234 l-4 -168 -42 8 c-52 10 -150 10 -197 0 l-36 -7 1 997 1
998 23 37 c15 24 36 41 60 49 29 11 452 13 2068 14 1932 0 2032 1 2058 18 61
40 84 128 49 187 -9 15 -33 37 -53 49 -35 19 -52 20 -435 21 -219 0 -401 2
-403 5 -3 2 -6 53 -7 112 -3 128 -26 211 -83 299 -71 109 -179 188 -303 220
-53 14 -124 17 -409 19 -209 2 -358 7 -378 13 -91 30 -165 136 -163 236 0 68
30 135 79 177 74 65 56 63 612 65 278 0 522 4 542 8 41 8 97 63 99 99 6 80
-14 120 -72 150 -31 16 -77 17 -559 16 -468 0 -532 -2 -591 -18z m-1124 -2496
l0 -160 -191 -3 -192 -2 0 157 c0 87 3 161 5 166 2 4 88 6 191 5 l187 -3 0
-160z m1205 0 l0 -165 -192 2 -192 3 -1 150 c-1 83 1 156 3 163 3 9 51 12 193
12 l189 0 0 -165z m2405 0 l0 -160 -193 -3 -192 -2 0 165 0 165 192 -2 193 -3
0 -160z m1202 0 l0 -165 -191 2 -191 3 -1 150 c0 83 2 156 4 163 3 9 50 12
191 12 l187 0 1 -165z m-3067 -1046 c3 -4 5 -79 5 -165 l0 -157 -271 0 c-149
0 -277 2 -285 5 -18 7 -20 305 -2 316 16 10 547 10 553 1z m1501 -4 c7 -59 2
-315 -6 -316 -5 0 -133 -1 -283 -2 -175 -1 -272 2 -273 8 -3 20 -5 310 -3 315
5 11 564 6 565 -5z"/>
<path d="M4970 5562 c-98 -47 -97 -192 0 -240 86 -42 183 10 196 105 6 44 -19
97 -59 126 -32 25 -97 29 -137 9z"/>
<path d="M3174 4920 c-56 -6 -95 -27 -121 -67 -16 -24 -17 -61 -18 -369 0
-475 -42 -435 464 -436 336 -1 361 0 391 18 18 10 42 31 54 47 19 26 20 40 21
362 1 372 -1 379 -64 422 -19 13 -50 23 -70 24 -259 3 -617 3 -657 -1z m516
-435 l0 -165 -190 0 -190 0 0 165 0 165 190 0 190 0 0 -165z"/>
</g>
</svg>
