<svg width="1754" height="512" viewBox="0 0 1754 512" fill="none" xmlns="http://www.w3.org/2000/svg">
<path d="M482 104H413C407.477 104 403 108.477 403 114C403 119.523 407.477 124 413 124H482C487.514 124 492 128.486 492 134V277.556C488.857 276.437 485.476 275.823 481.954 275.823C478.432 275.823 475.052 276.438 471.909 277.556V260.365C471.909 243.798 458.43 230.32 441.863 230.32C438.341 230.32 434.961 230.935 431.818 232.053V226.046C431.818 222.524 431.203 219.144 430.085 216.001H456C461.523 216.001 466 211.524 466 206.001V162.001C466 156.478 461.523 152.001 456 152.001H408C402.477 152.001 398 156.478 398 162.001V196.246C389.778 197.281 382.58 201.645 377.807 207.949C377.932 207.319 378 206.668 378 206.001V162.001C378 156.478 373.523 152.001 368 152.001H320C314.477 152.001 310 156.478 310 162.001V206.001C310 211.524 314.477 216.001 320 216.001H368C370.435 216.001 372.664 215.129 374.399 213.683C372.688 217.457 371.727 221.64 371.727 226.046V232.053C368.584 230.934 365.203 230.32 361.681 230.32C352.966 230.32 345.109 234.053 339.616 240.001H280C274.477 240.001 270 244.478 270 250.001V294.001C270 299.524 274.477 304.001 280 304.001H331.635V332.001H180.365V304.001H232C237.523 304.001 242 299.524 242 294.001V250.001C242 244.478 237.523 240.001 232 240.001H172.385C166.892 234.054 159.035 230.32 150.319 230.32C146.797 230.32 143.417 230.935 140.274 232.053V226.046C140.274 221.64 139.313 217.457 137.602 213.683C139.336 215.129 141.566 216.001 144.001 216.001H192.001C197.524 216.001 202.001 211.524 202.001 206.001V162.001C202.001 156.478 197.524 152.001 192.001 152.001H144.001C138.478 152.001 134.001 156.478 134.001 162.001V206.001C134.001 206.668 134.069 207.318 134.194 207.949C129.422 201.645 122.223 197.282 114.001 196.246V162C114.001 156.477 109.524 152 104.001 152H56C50.477 152 46 156.477 46 162V206C46 211.523 50.477 216 56 216H81.916C80.797 219.143 80.183 222.523 80.183 226.045V232.052C77.04 230.933 73.659 230.319 70.137 230.319C53.57 230.319 40.092 243.798 40.092 260.364V277.555C36.949 276.436 33.568 275.822 30.046 275.822C26.524 275.822 23.144 276.437 20.001 277.555V134C20.001 128.486 24.487 124 30.001 124H323.001C328.524 124 333.001 119.523 333.001 114C333.001 108.477 328.524 104 323.001 104H266.001V94C266.001 73.047 248.954 56 228.001 56H186.001C176.076 56 168.001 47.925 168.001 38C168.001 28.075 176.076 20 186.001 20H256.001C261.524 20 266.001 15.523 266.001 10C266.001 4.477 261.524 0 256.001 0H186.001C165.048 0 148.001 17.047 148.001 38C148.001 58.953 165.048 76 186.001 76H228.001C237.926 76 246.001 84.075 246.001 94V104H30C13.458 104 0 117.458 0 134V428.796C0 450.859 8.568 471.626 24.125 487.271L45.784 509.051C47.739 511.016 50.306 512 52.875 512C55.425 512 57.976 511.031 59.926 509.091C63.842 505.196 63.86 498.865 59.966 494.949L38.307 473.169C26.501 461.297 20 445.539 20 428.796V305.868C20 300.329 24.506 295.823 30.046 295.823C35.585 295.823 40.091 300.329 40.091 305.868V367.582C40.091 373.105 44.568 377.582 50.091 377.582C55.614 377.582 60.091 373.105 60.091 367.582V260.365C60.091 254.826 64.597 250.32 70.137 250.32C75.676 250.32 80.182 254.826 80.182 260.365V367.582C80.182 373.105 84.659 377.582 90.182 377.582C95.705 377.582 100.182 373.105 100.182 367.582V226.045C100.182 220.506 104.688 216 110.228 216C115.767 216 120.273 220.506 120.273 226.045V367.582C120.273 373.105 124.75 377.582 130.273 377.582C135.796 377.582 140.273 373.105 140.273 367.582V260.365C140.273 254.826 144.779 250.32 150.319 250.32C155.858 250.32 160.364 254.826 160.364 260.365V413.28C160.364 418.339 164.142 422.601 169.165 423.208C174.19 423.815 178.872 420.575 180.077 415.661L191.323 369.79C192.634 364.443 197.906 361.002 203.33 361.96C206.128 362.453 208.553 364.016 210.16 366.359C211.766 368.703 212.348 371.528 211.798 374.316L199.777 435.279C197.366 447.506 191.446 458.639 182.659 467.476L155.339 494.949C151.445 498.865 151.463 505.197 155.379 509.091C157.33 511.031 159.88 512 162.43 512C164.998 512 167.567 511.016 169.521 509.051L196.841 481.578C208.422 469.932 216.222 455.26 219.4 439.147L231.421 378.184C233.019 370.08 231.328 361.865 226.658 355.052C225.919 353.974 225.115 352.961 224.262 352H287.739C286.886 352.961 286.082 353.975 285.343 355.052C280.674 361.865 278.982 370.081 280.58 378.184L292.601 439.147C295.778 455.26 303.579 469.932 315.16 481.578L342.48 509.051C344.435 511.016 347.002 512 349.571 512C352.121 512 354.672 511.031 356.622 509.091C360.538 505.196 360.556 498.865 356.662 494.949L329.342 467.476C320.554 458.639 314.635 447.505 312.224 435.279L300.203 374.316C299.653 371.528 300.235 368.703 301.841 366.359C303.447 364.015 305.873 362.453 308.671 361.96C314.089 361.005 319.366 364.443 320.677 369.79L331.923 415.661C333.128 420.574 337.809 423.82 342.835 423.208C347.857 422.602 351.636 418.339 351.636 413.28V260.365C351.636 254.826 356.142 250.32 361.682 250.32C367.221 250.32 371.727 254.826 371.727 260.365V367.582C371.727 373.105 376.204 377.582 381.727 377.582C387.25 377.582 391.727 373.105 391.727 367.582V226.045C391.727 220.506 396.234 216 401.773 216C407.312 216 411.818 220.506 411.818 226.045V367.582C411.818 373.105 416.295 377.582 421.818 377.582C427.341 377.582 431.818 373.105 431.818 367.582V260.365C431.818 254.826 436.324 250.32 441.864 250.32C447.403 250.32 451.909 254.826 451.909 260.365V367.582C451.909 373.105 456.386 377.582 461.909 377.582C467.432 377.582 471.909 373.105 471.909 367.582V305.868C471.909 300.329 476.415 295.823 481.955 295.823C487.494 295.823 492 300.329 492 305.868V428.796C492 445.538 485.499 461.296 473.693 473.168L452.034 494.948C448.14 498.864 448.158 505.196 452.074 509.09C454.025 511.03 456.575 511.999 459.125 511.999C461.693 511.999 464.262 511.015 466.216 509.05L487.875 487.27C503.432 471.626 512 450.859 512 428.796V134C512 117.458 498.542 104 482 104ZM358 196H330V172H358V196ZM154 172H182V196H154V172ZM66 172H94V196H66V172ZM290 284V260H331.635V260.365V284H290ZM180.365 260H222V284H180.365V260.365V260ZM418 172H446V196H418V172Z" fill="#C6B62E"/>
<path d="M232 152C226.477 152 222 156.477 222 162V206C222 211.523 226.477 216 232 216H280C285.523 216 290 211.523 290 206V162C290 156.477 285.523 152 280 152H232ZM270 196H242V172H270V196Z" fill="#C6B62E"/>
<path d="M368 124C370.63 124 373.21 122.93 375.07 121.07C376.93 119.21 378 116.63 378 114C378 111.37 376.93 108.79 375.07 106.93C373.21 105.07 370.63 104 368 104C365.37 104 362.79 105.07 360.93 106.93C359.07 108.79 358 111.37 358 114C358 116.63 359.07 119.21 360.93 121.07C362.79 122.93 365.37 124 368 124Z" fill="#C6B62E"/>
<path d="M623.391 305.922V382H587.812V177.25H666.141C689.016 177.25 707.156 183.203 720.562 195.109C734.062 207.016 740.812 222.766 740.812 242.359C740.812 262.422 734.203 278.031 720.984 289.188C707.859 300.344 689.438 305.922 665.719 305.922H623.391ZM623.391 277.375H666.141C678.797 277.375 688.453 274.422 695.109 268.516C701.766 262.516 705.094 253.891 705.094 242.641C705.094 231.578 701.719 222.766 694.969 216.203C688.219 209.547 678.938 206.125 667.125 205.938H623.391V277.375ZM845.511 261.062C841.011 260.312 836.37 259.938 831.589 259.938C815.932 259.938 805.386 265.938 799.948 277.938V382H765.776V229.844H798.401L799.245 246.859C807.495 233.641 818.932 227.031 833.557 227.031C838.432 227.031 842.464 227.688 845.651 229L845.511 261.062ZM950.912 382C949.412 379.094 948.099 374.359 946.974 367.797C936.099 379.141 922.787 384.812 907.037 384.812C891.756 384.812 879.287 380.453 869.631 371.734C859.974 363.016 855.146 352.234 855.146 339.391C855.146 323.172 861.146 310.75 873.146 302.125C885.24 293.406 902.49 289.047 924.896 289.047H945.849V279.062C945.849 271.188 943.646 264.906 939.24 260.219C934.834 255.438 928.131 253.047 919.131 253.047C911.349 253.047 904.974 255.016 900.006 258.953C895.037 262.797 892.552 267.719 892.552 273.719H858.381C858.381 265.375 861.146 257.594 866.677 250.375C872.209 243.062 879.709 237.344 889.177 233.219C898.74 229.094 909.381 227.031 921.099 227.031C938.912 227.031 953.115 231.531 963.709 240.531C974.302 249.438 979.74 262 980.021 278.219V346.844C980.021 360.531 981.943 371.453 985.787 379.609V382H950.912ZM913.365 357.391C920.115 357.391 926.443 355.75 932.349 352.469C938.349 349.188 942.849 344.781 945.849 339.25V310.562H927.427C914.771 310.562 905.256 312.766 898.881 317.172C892.506 321.578 889.318 327.812 889.318 335.875C889.318 342.438 891.474 347.688 895.787 351.625C900.193 355.469 906.052 357.391 913.365 357.391ZM1075.44 357.531C1083.97 357.531 1091.05 355.047 1096.67 350.078C1102.3 345.109 1105.3 338.969 1105.67 331.656H1137.88C1137.5 341.125 1134.55 349.984 1129.02 358.234C1123.48 366.391 1115.98 372.859 1106.52 377.641C1097.05 382.422 1086.83 384.812 1075.86 384.812C1054.58 384.812 1037.7 377.922 1025.23 364.141C1012.77 350.359 1006.53 331.328 1006.53 307.047V303.531C1006.53 280.375 1012.72 261.859 1025.09 247.984C1037.47 234.016 1054.34 227.031 1075.72 227.031C1093.81 227.031 1108.53 232.328 1119.88 242.922C1131.31 253.422 1137.31 267.25 1137.88 284.406H1105.67C1105.3 275.688 1102.3 268.516 1096.67 262.891C1091.14 257.266 1084.06 254.453 1075.44 254.453C1064.38 254.453 1055.84 258.484 1049.84 266.547C1043.84 274.516 1040.8 286.656 1040.7 302.969V308.453C1040.7 324.953 1043.66 337.281 1049.56 345.438C1055.56 353.5 1064.19 357.531 1075.44 357.531ZM1246.09 340.656C1246.09 334.562 1243.56 329.922 1238.5 326.734C1233.53 323.547 1225.23 320.734 1213.6 318.297C1201.98 315.859 1192.28 312.766 1184.5 309.016C1167.43 300.766 1158.9 288.812 1158.9 273.156C1158.9 260.031 1164.43 249.062 1175.5 240.25C1186.56 231.438 1200.62 227.031 1217.68 227.031C1235.87 227.031 1250.54 231.531 1261.7 240.531C1272.95 249.531 1278.57 261.203 1278.57 275.547H1244.4C1244.4 268.984 1241.96 263.547 1237.09 259.234C1232.21 254.828 1225.75 252.625 1217.68 252.625C1210.18 252.625 1204.04 254.359 1199.26 257.828C1194.57 261.297 1192.23 265.938 1192.23 271.75C1192.23 277 1194.43 281.078 1198.84 283.984C1203.25 286.891 1212.15 289.844 1225.56 292.844C1238.96 295.75 1249.46 299.266 1257.06 303.391C1264.75 307.422 1270.42 312.297 1274.07 318.016C1277.82 323.734 1279.7 330.672 1279.7 338.828C1279.7 352.516 1274.03 363.625 1262.68 372.156C1251.34 380.594 1236.48 384.812 1218.1 384.812C1205.64 384.812 1194.53 382.562 1184.78 378.062C1175.03 373.562 1167.43 367.375 1162 359.5C1156.56 351.625 1153.84 343.141 1153.84 334.047H1187.03C1187.5 342.109 1190.54 348.344 1196.17 352.75C1201.79 357.062 1209.25 359.219 1218.53 359.219C1227.53 359.219 1234.37 357.531 1239.06 354.156C1243.75 350.688 1246.09 346.188 1246.09 340.656ZM1343.05 382H1308.88V229.844H1343.05V382ZM1306.77 190.328C1306.77 185.078 1308.41 180.719 1311.69 177.25C1315.07 173.781 1319.85 172.047 1326.04 172.047C1332.22 172.047 1337.01 173.781 1340.38 177.25C1343.76 180.719 1345.44 185.078 1345.44 190.328C1345.44 195.484 1343.76 199.797 1340.38 203.266C1337.01 206.641 1332.22 208.328 1326.04 208.328C1319.85 208.328 1315.07 206.641 1311.69 203.266C1308.41 199.797 1306.77 195.484 1306.77 190.328ZM1420.33 192.859V229.844H1447.19V255.156H1420.33V340.094C1420.33 345.906 1421.45 350.125 1423.7 352.75C1426.05 355.281 1430.17 356.547 1436.08 356.547C1440.02 356.547 1444 356.078 1448.03 355.141V381.578C1440.25 383.734 1432.75 384.812 1425.53 384.812C1399.28 384.812 1386.16 370.328 1386.16 341.359V255.156H1361.13V229.844H1386.16V192.859H1420.33ZM1523.76 333.062L1554.7 229.844H1591.12L1530.65 405.062C1521.37 430.656 1505.62 443.453 1483.4 443.453C1478.43 443.453 1472.95 442.609 1466.95 440.922V414.484L1473.42 414.906C1482.04 414.906 1488.51 413.312 1492.82 410.125C1497.23 407.031 1500.7 401.781 1503.23 394.375L1508.15 381.297L1454.72 229.844H1491.56L1523.76 333.062Z" fill="white"/>
</svg>
